<?xml version="1.0" encoding="utf-8"?>
<!-- Generator: Adobe Illustrator 18.1.1, SVG Export Plug-In . SVG Version: 6.00 Build 0)  -->
<!DOCTYPE svg PUBLIC "-//W3C//DTD SVG 1.1//EN" "http://www.w3.org/Graphics/SVG/1.1/DTD/svg11.dtd">
<svg version="1.1" id="Layer_1" xmlns="http://www.w3.org/2000/svg" xmlns:xlink="http://www.w3.org/1999/xlink" x="0px" y="0px"
	 viewBox="0 0 294.1 188.7" enable-background="new 0 0 294.1 188.7" xml:space="preserve">
<path fill="#FDFDFE" d="M142.8,133.9c2.8,0.4,5.4,0.3,7.9-0.4c2.5-0.6,4.7-1.7,6.7-3.1c2-1.4,3.6-3.3,4.9-5.4
	c1.3-2.2,2.2-4.6,2.7-7.3c0.5-2.7,0.5-5.7,0-8.8c-0.5-3.1-1.5-6.4-3.1-9.8c-1.4-3-2.3-5.9-2.6-8.7c-0.3-2.8-0.2-5.4,0.5-8
	c-2.7-0.5-5.5-0.8-8.4-0.9c-2.8-0.1-5.6,0-8.2,0.4c-2.7,0.4-5.2,1.1-7.6,2.1c-2.4,1-4.5,2.4-6.3,4.1c-1.5,1.5-2.6,3.1-3.2,4.9
	c-0.6,1.8-0.8,3.5-0.7,5.1c0.1,1.6,0.6,3.1,1.4,4.4c0.8,1.3,1.8,2.3,3,3l-3.3,1.6c-1-0.1-2.1-0.5-3.3-1.2c-1.2-0.7-2.3-1.7-3.3-2.9
	c-1.1-1.2-2-2.5-2.8-4c-0.8-1.5-1.4-3.1-1.7-4.8c-0.3-1.7-0.3-3.4,0-5.2c0.3-1.8,1.1-3.5,2.3-5.2c1.5-2.1,3.4-3.7,5.7-4.7
	c2.2-1,4.7-1.7,7.3-2.1c2.6-0.3,5.3-0.4,8.1-0.3c2.8,0.2,5.5,0.4,8.2,0.8c2.7,0.3,5.3,0.7,7.7,1c2.4,0.3,4.5,0.4,6.4,0.3
	c1-2.2,2.3-4.2,3.9-6c1.7-1.8,3.6-3.4,5.7-4.6c2.2-1.3,4.6-2.3,7.2-3c2.7-0.7,5.4-1,8.4-1c3.2,0,5.8,0.6,8,1.8
	c2.1,1.2,3.7,2.7,4.7,4.6c1,1.8,1.5,3.8,1.5,6c0,2.2-0.6,4.3-1.7,6.3c-1.1,2-2.7,3.7-4.8,5.2c-2.1,1.5-4.8,2.5-7.9,2.9
	c-2.9,0.4-5.3,0.3-7.1-0.4c-1.8-0.7-3.1-1.7-3.8-3c-0.7-1.3-0.9-2.8-0.5-4.5c0.4-1.7,1.3-3.3,2.8-4.8c-0.6,0.2-1.3,0.4-2.1,0.7
	c-0.7,0.2-1.4,0.5-2.2,0.8c-0.8,0.3-1.7,0.5-2.6,0.8c-0.5,2.2-0.5,4.7-0.1,7.3c0.4,2.7,1.4,5.5,3,8.5c2,3.9,3.2,7.7,3.7,11.4
	c0.4,3.8,0.1,7.3-0.8,10.6s-2.5,6.3-4.6,9c-2.1,2.7-4.7,4.9-7.7,6.7c-3,1.8-6.4,3-10.1,3.7c-3.7,0.7-7.7,0.7-11.8,0
	c-4.3-0.7-7.7-2-10.1-4c-2.4-2-4-4.3-4.7-6.9c-0.8-2.6-0.8-5.3-0.2-8.1c0.7-2.8,1.8-5.4,3.5-7.8c1.7-2.4,3.9-4.3,6.5-5.8
	c2.6-1.5,5.5-2.3,8.7-2.3c1.4,0,2.5,0.3,3.3,1c0.7,0.7,1.2,1.5,1.3,2.5c0.1,1-0.1,2.1-0.5,3.2c-0.4,1.1-1.1,2.2-2,3.2
	c-0.9,1-2,1.8-3.2,2.5c-1.3,0.7-2.6,1-4.1,1c-1.4,0-2.4-0.5-3-1.4c-0.6-1-0.7-2.2-0.4-3.7c-1.6,0.9-2.9,2-3.8,3.3
	c-1,1.4-1.6,2.8-2,4.4c-0.3,1.6-0.4,3.2-0.1,4.8c0.3,1.6,0.9,3.1,1.8,4.5c0.9,1.4,2.2,2.6,3.8,3.6
	C138.5,132.9,140.4,133.5,142.8,133.9z M185.6,67.6c-1.3,0-2.6,0.2-3.9,0.6c-1.3,0.4-2.6,1-3.8,1.8c-1.2,0.8-2.4,1.7-3.4,2.9
	c-1,1.1-1.9,2.4-2.6,3.9c2.1-0.6,4-1.3,5.8-2c1.8-0.7,3.3-1.3,4.6-1.9c1.5-0.7,2.8-1.3,4-2l1.2,3.2c-1.3,0.1-2.5,0.6-3.7,1.4
	c-1.2,0.8-2.2,1.7-3,2.8c-0.8,1.1-1.4,2.2-1.8,3.4c-0.4,1.2-0.4,2.3-0.1,3.2c0.3,1,0.9,1.7,1.9,2.2c1,0.5,2.5,0.6,4.5,0.4
	c2.3-0.3,4.3-1,5.9-2.1c1.6-1.1,2.8-2.4,3.7-3.9c0.8-1.5,1.3-3,1.3-4.6c0.1-1.6-0.3-3.1-1-4.5c-0.7-1.4-1.9-2.5-3.5-3.4
	C190,68.1,188,67.6,185.6,67.6z"/>
<path fill="#FDFDFE" d="M193.7,101.7l-7.8,19c-0.3,0.8-0.3,1.4,0.1,1.7c0.4,0.3,1,0.4,1.7,0.3c0.7-0.1,1.5-0.5,2.3-1.1
	c0.8-0.6,1.5-1.5,2.1-2.6l1.1,1.7c-0.4,1-1,1.9-1.7,2.8c-0.7,0.9-1.5,1.6-2.4,2.2c-0.9,0.6-1.9,1.1-2.9,1.5c-1,0.4-2,0.6-3,0.6
	c-1,0-1.9-0.2-2.6-0.5c-0.7-0.3-1.3-0.8-1.7-1.5c-0.4-0.7-0.5-1.5-0.5-2.5c0-1,0.3-2.1,0.9-3.4l7.5-18.1h-3.6l1.7-3.2h3.1l0.7-1.9
	l7.5-1.4l-1.4,3.3h5.6l-1.7,3.2H193.7z"/>
<path fill="#FDFDFE" d="M220.5,99.1c-0.3,0.8-0.7,1.7-1.2,2.7c-0.4,1-0.9,2.2-1.4,3.3c-0.5,1.2-1,2.4-1.5,3.7
	c-0.5,1.3-1,2.5-1.5,3.7c-1.1,2.8-2.3,5.8-3.6,8.9c-1.6,4-3.7,7.1-6.3,9.2c-2.6,2.1-5.5,3.2-8.7,3.2c-1.3,0-2.4-0.3-3.2-0.9
	c-0.8-0.6-1.4-1.4-1.7-2.4c-0.3-1-0.3-2-0.2-3.2c0.2-1.2,0.6-2.3,1.2-3.4c0.6-1,1.2-1.8,2-2.5c-0.4-0.7-0.6-1.6-0.5-2.5
	c0-1,0.3-2.1,0.8-3.5c0.2-0.5,0.5-1.3,1-2.3c0.4-1,0.9-2.1,1.4-3.2c0.5-1.1,0.9-2.2,1.3-3.2c0.4-1,0.7-1.7,0.8-2.2
	c0.4-0.8,0.4-1.5,0.2-2c-0.2-0.5-0.9-0.8-1.8-0.8h-0.6l1.3-2.7c0.3-0.1,0.7-0.2,1.1-0.2c0.3-0.1,0.7-0.1,1.1-0.2
	c0.4,0,0.8-0.1,1.2-0.1c2.4,0,3.9,0.7,4.5,2c0.6,1.3,0.3,3.3-0.8,6.1c-0.2,0.6-0.6,1.5-1,2.6c-0.4,1.1-0.9,2.2-1.3,3.2
	c-0.5,1.2-1,2.5-1.6,3.9c-0.2,0.7-0.2,1.2,0,1.6c0.2,0.4,0.6,0.5,1.2,0.6c0.5,0,1.1-0.1,1.8-0.5c0.7-0.3,1.4-0.9,2-1.6l7.1-17.4
	H220.5z M198.7,123.4c-0.9,0-1.7-0.1-2.4-0.4c-0.5,0.5-1.1,1.1-1.6,1.8c-0.5,0.7-0.9,1.7-1.1,2.9c-0.2,1-0.1,1.9,0.4,2.5
	c0.5,0.6,1.2,0.9,2,0.9c0.8,0,1.6-0.3,2.4-0.9c0.8-0.6,1.6-1.3,2.3-2.2c0.7-0.9,1.4-1.9,2-3.1c0.6-1.1,1.1-2.3,1.6-3.4
	c-0.9,0.6-1.9,1-2.8,1.4C200.7,123.3,199.7,123.4,198.7,123.4z"/>
<path fill="#FDFDFE" d="M228.3,120.2c-0.7,0.9-1.5,1.6-2.4,2.2c-0.9,0.6-1.9,1.1-2.9,1.5c-1,0.4-2,0.6-3,0.6s-1.9-0.2-2.6-0.5
	c-0.7-0.3-1.3-0.8-1.7-1.5c-0.4-0.7-0.5-1.5-0.5-2.5c0-1,0.3-2.1,0.9-3.4c0.1-0.3,0.4-1,0.9-2.1c0.5-1.1,1-2.3,1.6-3.7
	c0.6-1.4,1.2-3,1.9-4.6c0.7-1.6,1.3-3.2,1.9-4.6c0.6-1.4,1.1-2.7,1.5-3.7c0.4-1,0.7-1.7,0.8-2c0.4-0.8,0.4-1.5,0.2-2
	c-0.2-0.5-0.9-0.8-1.8-0.8h-0.6l1.3-2.7c0.3,0,0.7-0.1,1.1-0.2c0.3-0.1,0.7-0.1,1.1-0.2c0.4,0,0.8-0.1,1.2-0.1
	c2.4,0,3.8,0.6,4.4,1.9c0.6,1.3,0.3,3.3-0.9,6.1c-0.1,0.3-0.3,0.9-0.6,1.6c-0.3,0.7-0.6,1.6-1,2.5c-0.4,1-0.8,2-1.3,3.2
	c-0.5,1.1-0.9,2.3-1.4,3.4c-1.1,2.7-2.3,5.6-3.6,8.8c-0.3,0.8-0.3,1.4,0.1,1.7c0.4,0.3,1,0.4,1.7,0.3c0.7-0.1,1.5-0.5,2.3-1.2
	c0.8-0.6,1.5-1.5,2.1-2.6l1.1,1.7C229.6,118.4,229,119.4,228.3,120.2z"/>
<path fill="#FDFDFE" d="M239.9,119.9c0.9,0,1.8-0.1,2.7-0.4c0.9-0.3,1.8-0.7,2.7-1.2c0.9-0.5,1.6-1,2.3-1.7c0.7-0.6,1.3-1.3,1.7-2
	l1.1,1.7c-1,2.2-2.8,3.9-5.4,5.2c-2.5,1.2-5.5,1.9-8.9,1.9c-1.7,0-3.2-0.3-4.5-1c-1.2-0.6-2.2-1.5-2.8-2.7c-0.7-1.1-1-2.4-1.1-4
	c0-1.5,0.3-3.1,0.9-4.8c1.6-4,3.7-7.1,6.3-9.2c2.6-2.1,5.6-3.2,8.8-3.2c1.7,0,3,0.4,3.9,1.3c0.9,0.9,1.4,2,1.5,3.2
	c0.1,1.3-0.2,2.6-0.8,4.1c-0.6,1.4-1.6,2.7-3,3.8c-1.9,1.5-4,2.3-6.5,2.3h-4c-0.5,1.9-0.3,3.4,0.6,4.7
	C236.5,119.3,237.9,119.9,239.9,119.9z M242.3,101.5c-0.4,0.2-0.9,0.5-1.5,1.1c-0.6,0.6-1.1,1.3-1.7,2.2c-0.6,0.9-1.2,1.9-1.8,2.9
	c-0.6,1.1-1.1,2.2-1.6,3.4h2.2c1,0,1.8-0.3,2.4-0.9c0.7-0.6,1.3-1.5,1.9-2.7c0.5-0.9,0.9-1.8,1.2-2.6c0.3-0.8,0.5-1.5,0.5-2.1
	c0-0.6-0.1-1-0.3-1.3C243.4,101.2,242.9,101.2,242.3,101.5z"/>
<path fill="#FDFDFE" d="M260.9,102.5c1.3-0.2,2.5-0.2,3.6,0.1c1.1,0.3,2,0.9,2.7,1.6c0.7,0.8,1.2,1.8,1.4,3c0.2,1.2,0.1,2.6-0.3,4.2
	c-0.6,2.1-1.4,3.8-2.4,5.2c-1,1.4-2.1,2.5-3.4,3.4c-1.3,0.9-2.7,1.5-4.2,1.8c-1.5,0.4-3.1,0.6-4.7,0.6c-1.3,0-2.4-0.3-3.2-0.9
	c-0.8-0.6-1.3-1.4-1.6-2.3c-0.3-0.9-0.4-2-0.2-3.2c0.2-1.2,0.6-2.3,1.2-3.5c0.5-1,1.1-1.9,1.7-2.6c0.6-0.7,1.1-1.2,1.7-1.6
	c0.5-0.4,1-0.7,1.5-0.8c0.5-0.1,0.8-0.2,1.1-0.2c1.2,0,1.9,0.5,2.3,1.4c0.4,0.9,0.3,2.1-0.2,3.4c-0.6,1.5-1.4,2.7-2.5,3.6
	c-1,0.8-2.2,1.2-3.4,1.2c-0.2,0-0.5,0-0.8-0.1c-0.1,0.8,0.1,1.5,0.4,2.1c0.4,0.5,0.9,0.8,1.8,0.8c0.8,0,1.6-0.2,2.3-0.6
	c0.8-0.4,1.5-1,2.2-1.7c0.7-0.7,1.3-1.6,1.9-2.6c0.6-1,1.1-2.1,1.5-3.2c1.1-3,1.3-5.1,0.6-6.2c-0.7-1.2-2.3-1.4-4.7-0.7
	c-0.6,0.2-1.1,0.1-1.5-0.1c-0.4-0.2-0.7-0.6-0.9-1c-0.2-0.5-0.3-1-0.3-1.6c0-0.6,0.1-1.3,0.3-1.9c0.6-1.6,1.4-2.8,2.5-3.6
	c1-0.8,2.2-1.2,3.4-1.2c1.2,0,2,0.5,2.3,1.4c0.4,0.9,0.3,2.1-0.2,3.5c-0.2,0.4-0.4,0.8-0.7,1.4C261.8,101.7,261.4,102.2,260.9,102.5
	z"/>
<g>
	<path fill="#FDFDFE" d="M229.7,146.7c-6,0.7-12.3,1.3-18.9,1.8c-6.6,0.6-13.3,1.1-20.1,1.7c-6.8,0.6-13.7,1.3-20.5,2
		c-6.9,0.7-13.6,1.6-20.2,2.7c-6.6,1.1-12.9,2.4-19,3.9c-6.1,1.5-11.8,3.4-17.1,5.5c-5.3,2.1-10.1,4.6-14.4,7.5
		c-4.3,2.8-8,6.1-11,9.8c-0.9-1.6-2.3-3-4.3-4.3c-1.9-1.2-4.2-2.1-6.9-2.5c-2.7-0.5-5.7-0.4-9.1,0.1c-3.4,0.5-6.9,1.7-10.7,3.6
		c1.8-3.7,4.3-7.3,7.5-10.8c3.2-3.5,7-6.7,11.6-9.7c4.6-3,9.8-5.5,15.8-7.8c6-2.2,12.7-3.9,20.2-5.1c9.4-1.5,18.3-2.6,26.8-3.3
		c8.4-0.7,16.5-1.2,24.3-1.4c7.7-0.3,15.2-0.4,22.5-0.5c7.3-0.1,14.4-0.2,21.5-0.4c7.1-0.2,14.2-0.6,21.3-1.3
		c7.1-0.6,14.4-1.6,21.9-3c4.2-0.7,7.9-1.8,11-3.2c3.1-1.4,5.7-2.9,7.9-4.6c2.1-1.7,3.8-3.5,4.9-5.3c1.2-1.9,1.9-3.6,2.1-5.4
		c0.3-1.7,0.1-3.3-0.4-4.7c-0.6-1.4-1.5-2.5-2.8-3.3c-1.8-1.1-3.6-1.3-5.3-0.5c-1.7,0.8-2.9,2.4-3.8,4.9l-1.2-1.6
		c0.5-1.5,1.2-2.6,2-3.5c0.8-0.9,1.8-1.5,2.7-1.9c1-0.4,2-0.5,3.1-0.5c1.1,0.1,2.1,0.3,3.1,0.8c1.5,0.7,2.8,1.7,3.8,3.1
		c1.1,1.4,1.8,2.9,2.3,4.7c0.4,1.7,0.5,3.7,0.1,5.7c-0.4,2.1-1.2,4.2-2.6,6.3c-1.4,2.1-3.3,4.2-5.8,6.3c-2.5,2.1-5.7,4-9.6,5.8
		c-3.9,1.8-8.5,3.4-13.9,4.8C243.1,144.7,236.9,145.9,229.7,146.7z"/>
</g>
<path fill="none" stroke="#FDFDFE" stroke-miterlimit="10" d="M141.8,135.3c2.8,0.4,5.4,0.3,7.9-0.4c2.5-0.6,4.7-1.7,6.7-3.1
	c2-1.4,3.6-3.3,4.9-5.4c1.3-2.2,2.2-4.6,2.7-7.3c0.5-2.7,0.5-5.7,0-8.8c-0.5-3.1-1.5-6.4-3.1-9.8c-1.4-3-2.3-5.9-2.6-8.7
	c-0.3-2.8-0.2-5.4,0.5-8c-2.7-0.5-5.5-0.8-8.4-0.9c-2.8-0.1-5.6,0-8.2,0.4c-2.7,0.4-5.2,1.1-7.6,2.1c-2.4,1-4.5,2.4-6.3,4.1
	c-1.5,1.5-2.6,3.1-3.2,4.9c-0.6,1.8-0.8,3.5-0.7,5.1c0.1,1.6,0.6,3.1,1.4,4.4c0.8,1.3,1.8,2.3,3,3l-3.3,1.6c-1-0.1-2.1-0.5-3.3-1.2
	c-1.2-0.7-2.3-1.7-3.3-2.9c-1.1-1.2-2-2.5-2.8-4c-0.8-1.5-1.4-3.1-1.7-4.8c-0.3-1.7-0.3-3.4,0-5.2c0.3-1.8,1.1-3.5,2.3-5.2
	c1.5-2.1,3.4-3.7,5.7-4.7c2.2-1,4.7-1.7,7.3-2.1c2.6-0.3,5.3-0.4,8.1-0.3c2.8,0.2,5.5,0.4,8.2,0.8c2.7,0.3,5.3,0.7,7.7,1
	c2.4,0.3,4.5,0.4,6.4,0.3c1-2.2,2.3-4.2,3.9-6s3.6-3.4,5.7-4.6c2.2-1.3,4.6-2.3,7.2-3c2.7-0.7,5.4-1,8.4-1c3.2,0,5.8,0.6,8,1.8
	c2.1,1.2,3.7,2.7,4.7,4.6c1,1.8,1.5,3.8,1.5,6c0,2.2-0.6,4.3-1.7,6.3c-1.1,2-2.7,3.7-4.8,5.2c-2.1,1.5-4.8,2.5-7.9,2.9
	c-2.9,0.4-5.3,0.3-7.1-0.4c-1.8-0.7-3.1-1.7-3.8-3c-0.7-1.3-0.9-2.8-0.5-4.5c0.4-1.7,1.3-3.3,2.8-4.8c-0.6,0.2-1.3,0.4-2.1,0.7
	c-0.7,0.2-1.4,0.5-2.2,0.8c-0.8,0.3-1.7,0.5-2.6,0.8c-0.5,2.2-0.5,4.7-0.1,7.3c0.4,2.7,1.4,5.5,3,8.5c2,3.9,3.2,7.7,3.7,11.4
	c0.4,3.8,0.1,7.3-0.8,10.6s-2.5,6.3-4.6,9c-2.1,2.7-4.7,4.9-7.7,6.7c-3,1.8-6.4,3-10.1,3.7c-3.7,0.7-7.7,0.7-11.8,0
	c-4.3-0.7-7.7-2-10.1-4c-2.4-2-4-4.3-4.7-6.9c-0.8-2.6-0.8-5.3-0.2-8.1c0.7-2.8,1.8-5.4,3.5-7.8c1.7-2.4,3.9-4.3,6.5-5.8
	c2.6-1.5,5.5-2.3,8.7-2.3c1.4,0,2.5,0.3,3.3,1c0.7,0.7,1.2,1.5,1.3,2.5c0.1,1-0.1,2.1-0.5,3.2c-0.4,1.1-1.1,2.2-2,3.2
	c-0.9,1-2,1.8-3.2,2.5c-1.3,0.7-2.6,1-4.1,1c-1.4,0-2.4-0.5-3-1.4c-0.6-1-0.7-2.2-0.4-3.7c-1.6,0.9-2.9,2-3.8,3.3
	c-1,1.4-1.6,2.8-2,4.4c-0.3,1.6-0.4,3.2-0.1,4.8c0.3,1.6,0.9,3.1,1.8,4.5c0.9,1.4,2.2,2.6,3.8,3.6
	C137.5,134.3,139.4,135,141.8,135.3z M184.6,69.1c-1.3,0-2.6,0.2-3.9,0.6c-1.3,0.4-2.6,1-3.8,1.8c-1.2,0.8-2.4,1.7-3.4,2.9
	c-1,1.1-1.9,2.4-2.6,3.9c2.1-0.6,4-1.3,5.8-2c1.8-0.7,3.3-1.3,4.6-1.9c1.5-0.7,2.8-1.3,4-2l1.2,3.2c-1.3,0.1-2.5,0.6-3.7,1.4
	c-1.2,0.8-2.2,1.7-3,2.8c-0.8,1.1-1.4,2.2-1.8,3.4c-0.4,1.2-0.4,2.3-0.1,3.2c0.3,1,0.9,1.7,1.9,2.2c1,0.5,2.5,0.6,4.5,0.4
	c2.3-0.3,4.3-1,5.9-2.1c1.6-1.1,2.8-2.4,3.7-3.9c0.8-1.5,1.3-3,1.3-4.6c0.1-1.6-0.3-3.1-1-4.5c-0.7-1.4-1.9-2.5-3.5-3.4
	C189,69.5,187,69.1,184.6,69.1z"/>
<path fill="none" stroke="#FDFDFE" stroke-miterlimit="10" d="M192.7,103.1l-7.8,19c-0.3,0.8-0.3,1.4,0.1,1.7c0.4,0.3,1,0.4,1.7,0.3
	c0.7-0.1,1.5-0.5,2.3-1.1c0.8-0.6,1.5-1.5,2.1-2.6l1.1,1.7c-0.4,1-1,1.9-1.7,2.8c-0.7,0.9-1.5,1.6-2.4,2.2c-0.9,0.6-1.9,1.1-2.9,1.5
	c-1,0.4-2,0.6-3,0.6c-1,0-1.9-0.2-2.6-0.5c-0.7-0.3-1.3-0.8-1.7-1.5c-0.4-0.7-0.5-1.5-0.5-2.5c0-1,0.3-2.1,0.9-3.4l7.5-18.1h-3.6
	l1.7-3.2h3.1l0.7-1.9l7.5-1.4l-1.4,3.3h5.6l-1.7,3.2H192.7z"/>
<path fill="none" stroke="#FDFDFE" stroke-miterlimit="10" d="M219.5,100.6c-0.3,0.8-0.7,1.7-1.2,2.7c-0.4,1-0.9,2.2-1.4,3.3
	c-0.5,1.2-1,2.4-1.5,3.7c-0.5,1.3-1,2.5-1.5,3.7c-1.1,2.8-2.3,5.8-3.6,8.9c-1.6,4-3.7,7.1-6.3,9.2c-2.6,2.1-5.5,3.2-8.7,3.2
	c-1.3,0-2.4-0.3-3.2-0.9c-0.8-0.6-1.4-1.4-1.7-2.4c-0.3-1-0.3-2-0.2-3.2c0.2-1.2,0.6-2.3,1.2-3.4c0.6-1,1.2-1.8,2-2.5
	c-0.4-0.7-0.6-1.6-0.5-2.5c0-1,0.3-2.1,0.8-3.5c0.2-0.5,0.5-1.3,1-2.3c0.4-1,0.9-2.1,1.4-3.2c0.5-1.1,0.9-2.2,1.3-3.2
	c0.4-1,0.7-1.7,0.8-2.2c0.4-0.8,0.4-1.5,0.2-2c-0.2-0.5-0.9-0.8-1.8-0.8h-0.6l1.3-2.7c0.3-0.1,0.7-0.2,1.1-0.2
	c0.3-0.1,0.7-0.1,1.1-0.2c0.4,0,0.8-0.1,1.2-0.1c2.4,0,3.9,0.7,4.5,2c0.6,1.3,0.3,3.3-0.8,6.1c-0.2,0.6-0.6,1.5-1,2.6
	c-0.4,1.1-0.9,2.2-1.3,3.2c-0.5,1.2-1,2.5-1.6,3.9c-0.2,0.7-0.2,1.2,0,1.6c0.2,0.4,0.6,0.5,1.2,0.6c0.5,0,1.1-0.1,1.8-0.5
	c0.7-0.3,1.4-0.9,2-1.6l7.1-17.4H219.5z M197.7,124.9c-0.9,0-1.7-0.1-2.4-0.4c-0.5,0.5-1.1,1.1-1.6,1.8c-0.5,0.7-0.9,1.7-1.1,2.9
	c-0.2,1-0.1,1.9,0.4,2.5c0.5,0.6,1.2,0.9,2,0.9c0.8,0,1.6-0.3,2.4-0.9c0.8-0.6,1.6-1.3,2.3-2.2c0.7-0.9,1.4-1.9,2-3.1
	c0.6-1.1,1.1-2.3,1.6-3.4c-0.9,0.6-1.9,1-2.8,1.4C199.7,124.7,198.7,124.9,197.7,124.9z"/>
<path fill="none" stroke="#FDFDFE" stroke-miterlimit="10" d="M227.3,121.7c-0.7,0.9-1.5,1.6-2.4,2.2c-0.9,0.6-1.9,1.1-2.9,1.5
	c-1,0.4-2,0.6-3,0.6s-1.9-0.2-2.6-0.5c-0.7-0.3-1.3-0.8-1.7-1.5c-0.4-0.7-0.5-1.5-0.5-2.5c0-1,0.3-2.1,0.9-3.4
	c0.1-0.3,0.4-1,0.9-2.1c0.5-1.1,1-2.3,1.6-3.7c0.6-1.4,1.2-3,1.9-4.6c0.7-1.6,1.3-3.2,1.9-4.6c0.6-1.4,1.1-2.7,1.5-3.7
	c0.4-1,0.7-1.7,0.8-2c0.4-0.8,0.4-1.5,0.2-2c-0.2-0.5-0.9-0.8-1.8-0.8h-0.6l1.3-2.7c0.3,0,0.7-0.1,1.1-0.2c0.3-0.1,0.7-0.1,1.1-0.2
	c0.4,0,0.8-0.1,1.2-0.1c2.4,0,3.8,0.6,4.4,1.9c0.6,1.3,0.3,3.3-0.9,6.1c-0.1,0.3-0.3,0.9-0.6,1.6c-0.3,0.7-0.6,1.6-1,2.5
	c-0.4,1-0.8,2-1.3,3.2c-0.5,1.1-0.9,2.3-1.4,3.4c-1.1,2.7-2.3,5.6-3.6,8.8c-0.3,0.8-0.3,1.4,0.1,1.7c0.4,0.3,1,0.4,1.7,0.3
	c0.7-0.1,1.5-0.5,2.3-1.2c0.8-0.6,1.5-1.5,2.1-2.6l1.1,1.7C228.6,119.9,228,120.8,227.3,121.7z"/>
<path fill="none" stroke="#FDFDFE" stroke-miterlimit="10" d="M238.9,121.4c0.9,0,1.8-0.1,2.7-0.4c0.9-0.3,1.8-0.7,2.7-1.2
	c0.9-0.5,1.6-1,2.3-1.7c0.7-0.6,1.3-1.3,1.7-2l1.1,1.7c-1,2.2-2.8,3.9-5.4,5.2c-2.5,1.2-5.5,1.9-8.9,1.9c-1.7,0-3.2-0.3-4.5-1
	c-1.2-0.6-2.2-1.5-2.8-2.7c-0.7-1.1-1-2.4-1.1-4c0-1.5,0.3-3.1,0.9-4.8c1.6-4,3.7-7.1,6.3-9.2c2.6-2.1,5.6-3.2,8.8-3.2
	c1.7,0,3,0.4,3.9,1.3c0.9,0.9,1.4,2,1.5,3.2c0.1,1.3-0.2,2.6-0.8,4.1c-0.6,1.4-1.6,2.7-3,3.8c-1.9,1.5-4,2.3-6.5,2.3h-4
	c-0.5,1.9-0.3,3.4,0.6,4.7C235.5,120.8,236.9,121.4,238.9,121.4z M241.3,102.9c-0.4,0.2-0.9,0.5-1.5,1.1c-0.6,0.6-1.1,1.3-1.7,2.2
	c-0.6,0.9-1.2,1.9-1.8,2.9c-0.6,1.1-1.1,2.2-1.6,3.4h2.2c1,0,1.8-0.3,2.4-0.9c0.7-0.6,1.3-1.5,1.9-2.7c0.5-0.9,0.9-1.8,1.2-2.6
	c0.3-0.8,0.5-1.5,0.5-2.1c0-0.6-0.1-1-0.3-1.3C242.4,102.7,241.9,102.7,241.3,102.9z"/>
<path fill="none" stroke="#FDFDFE" stroke-miterlimit="10" d="M259.9,103.9c1.3-0.2,2.5-0.2,3.6,0.1c1.1,0.3,2,0.9,2.7,1.6
	c0.7,0.8,1.2,1.8,1.4,3c0.2,1.2,0.1,2.6-0.3,4.2c-0.6,2.1-1.4,3.8-2.4,5.2c-1,1.4-2.1,2.5-3.4,3.4c-1.3,0.9-2.7,1.5-4.2,1.8
	c-1.5,0.4-3.1,0.6-4.7,0.6c-1.3,0-2.4-0.3-3.2-0.9c-0.8-0.6-1.3-1.4-1.6-2.3c-0.3-0.9-0.4-2-0.2-3.2c0.2-1.2,0.6-2.3,1.2-3.5
	c0.5-1,1.1-1.9,1.7-2.6c0.6-0.7,1.1-1.2,1.7-1.6c0.5-0.4,1-0.7,1.5-0.8c0.5-0.1,0.8-0.2,1.1-0.2c1.2,0,1.9,0.5,2.3,1.4
	c0.4,0.9,0.3,2.1-0.2,3.4c-0.6,1.5-1.4,2.7-2.5,3.6c-1,0.8-2.2,1.2-3.4,1.2c-0.2,0-0.5,0-0.8-0.1c-0.1,0.8,0.1,1.5,0.4,2.1
	c0.4,0.5,0.9,0.8,1.8,0.8c0.8,0,1.6-0.2,2.3-0.6c0.8-0.4,1.5-1,2.2-1.7c0.7-0.7,1.3-1.6,1.9-2.6c0.6-1,1.1-2.1,1.5-3.2
	c1.1-3,1.3-5.1,0.6-6.2c-0.7-1.2-2.3-1.4-4.7-0.7c-0.6,0.2-1.1,0.1-1.5-0.1c-0.4-0.2-0.7-0.6-0.9-1c-0.2-0.5-0.3-1-0.3-1.6
	c0-0.6,0.1-1.3,0.3-1.9c0.6-1.6,1.4-2.8,2.5-3.6c1-0.8,2.2-1.2,3.4-1.2c1.2,0,2,0.5,2.3,1.4c0.4,0.9,0.3,2.1-0.2,3.5
	c-0.2,0.4-0.4,0.8-0.7,1.4C260.8,103.2,260.4,103.6,259.9,103.9z"/>
<g>
	<path fill="none" stroke="#FDFDFE" stroke-miterlimit="10" d="M228.7,148.1c-6,0.7-12.3,1.3-18.9,1.8c-6.6,0.6-13.3,1.1-20.1,1.7
		c-6.8,0.6-13.7,1.3-20.5,2c-6.9,0.7-13.6,1.6-20.2,2.7c-6.6,1.1-12.9,2.4-19,3.9c-6.1,1.5-11.8,3.4-17.1,5.5
		c-5.3,2.1-10.1,4.6-14.4,7.5c-4.3,2.8-8,6.1-11,9.8c-0.9-1.6-2.3-3-4.3-4.3s-4.2-2.1-6.9-2.5c-2.7-0.5-5.7-0.4-9.1,0.1
		c-3.4,0.5-6.9,1.7-10.7,3.6c1.8-3.7,4.3-7.3,7.5-10.8c3.2-3.5,7-6.7,11.6-9.7c4.6-3,9.8-5.5,15.8-7.8c6-2.2,12.7-3.9,20.2-5.1
		c9.4-1.5,18.3-2.6,26.8-3.3c8.4-0.7,16.5-1.2,24.3-1.4c7.7-0.3,15.2-0.4,22.5-0.5c7.3-0.1,14.4-0.2,21.5-0.4
		c7.1-0.2,14.2-0.6,21.3-1.3c7.1-0.6,14.4-1.6,21.9-3c4.2-0.7,7.9-1.8,11-3.2c3.1-1.4,5.7-2.9,7.9-4.6c2.1-1.7,3.8-3.5,4.9-5.3
		c1.2-1.9,1.9-3.6,2.1-5.4c0.3-1.7,0.1-3.3-0.4-4.7c-0.6-1.4-1.5-2.5-2.8-3.3c-1.8-1.1-3.6-1.3-5.3-0.5c-1.7,0.8-2.9,2.4-3.8,4.9
		l-1.2-1.6c0.5-1.5,1.2-2.6,2-3.5c0.8-0.9,1.8-1.5,2.7-1.9c1-0.4,2-0.5,3.1-0.5c1.1,0.1,2.1,0.3,3.1,0.8c1.5,0.7,2.8,1.7,3.8,3.1
		c1.1,1.4,1.8,2.9,2.3,4.7c0.4,1.7,0.5,3.7,0.1,5.7c-0.4,2.1-1.2,4.2-2.6,6.3c-1.4,2.1-3.3,4.2-5.8,6.3c-2.5,2.1-5.7,4-9.6,5.8
		c-3.9,1.8-8.5,3.4-13.9,4.8C242.1,146.2,235.9,147.3,228.7,148.1z"/>
</g>
<g>
	<path fill="#FFFFFF" d="M97.6,14.7c-2.5,6.1-4.9,12-7.3,17.8c-1,2.5-2,5-3.1,7.6c-1.1,2.6-2.1,5.1-3.1,7.5c-1,2.4-2,4.8-2.9,7
		c-0.9,2.2-1.7,4.1-2.5,5.8c-0.9,2.1-1.9,4.2-2.8,6.3c-0.9,2.1-1.8,4-2.5,5.9c-0.8,1.9-1.4,3.6-1.9,5.2c-0.5,1.6-0.8,2.9-0.8,4
		c-0.1,1,0.2,1.7,0.9,2.2c0.6,0.4,1.3,0.6,2.1,0.5c0.6-0.1,1.2-0.3,1.9-0.7c0.7-0.4,1.3-0.9,2-1.5c0.6-0.6,1.2-1.4,1.8-2.4
		c0.5-0.9,1-2,1.3-3.1l2.4,2.7c-0.3,1.8-0.9,3.4-1.6,5.1c-0.7,1.6-1.7,3.1-2.8,4.3c-1.1,1.3-2.4,2.4-3.9,3.2c-1.5,0.9-3,1.5-4.7,1.7
		c-1.9,0.3-3.6,0.3-5.1,0.1c-1.5-0.3-2.8-0.8-3.8-1.7c-1-0.9-1.8-2.2-2.2-3.7c-0.4-1.6-0.5-3.5-0.3-5.9c-2.6,4.5-5.2,8.5-7.7,11.9
		c-2.6,3.4-5,6.4-7.5,8.9c-2.4,2.4-5.1,4.3-7.9,5.6c-2.8,1.3-5.5,1.9-8,1.7c-2.5-0.2-4.7-1.1-6.5-2.9c-1.8-1.8-3-4.5-3.4-8.3
		c-0.4-3.7,0-8.6,1.4-14.5c1.3-5.9,3.9-13.1,7.7-21.5c2.1-4.6,4.5-9.2,7.2-13.9c2.7-4.7,5.7-9,8.8-12.9c-2.4,0.7-4.8,1.5-7.4,2.5
		c-2.6,1-5.1,2.1-7.5,3.4c-2.4,1.3-4.5,2.8-6.4,4.5c-1.9,1.7-3.2,3.7-4.1,5.8c-0.9,2.1-1.3,4.1-1.2,5.9c0.1,1.8,0.4,3.5,1.1,4.9
		c0.7,1.4,1.6,2.6,2.8,3.6c1.2,0.9,2.5,1.6,4,1.9l-2,2.8c-2.5,0.2-5-0.1-7.5-1.1c-2.4-1-4.5-2.4-6.3-4.4c-1.8-1.9-3-4.2-3.8-6.8
		c-0.7-2.6-0.6-5.5,0.3-8.5C5.7,48.2,7,46,8.8,44.3c1.8-1.8,4-3.3,6.5-4.5c2.5-1.2,5.1-2.3,8-3.1c2.9-0.8,5.8-1.5,8.6-2.1
		c2.8-0.6,5.6-1.1,8.2-1.6c2.6-0.5,4.9-1,6.8-1.6c1.9-2,3.8-3.9,5.7-5.4c1.9-1.6,3.9-2.9,5.9-4c0.7-0.4,1.5-0.8,2.5-1.2
		c0.9-0.4,1.9-0.7,2.8-0.9c1-0.2,1.9-0.3,2.8-0.3c0.9,0,1.8,0.3,2.5,0.8c1,0.7,1.3,1.7,1,2.9c-0.4,1.2-1.3,2.5-2.9,3.9
		c-1.5,1.3-3.6,2.6-6.2,3.8c-2.6,1.2-5.6,2.1-9,2.7l-0.8,0.1c-2.8,3.6-5.5,7.8-7.9,12.7c-2.4,4.9-4.6,10.2-6.6,15.9
		c-1.8,5.1-3.2,9.8-4.3,14.2c-1.1,4.3-1.7,8.1-1.9,11.3c-0.2,3.2,0.1,5.8,0.8,7.7c0.7,1.9,2,3,3.9,3.3c1.8,0.2,3.8-0.5,6-2
		c2.1-1.6,4.4-3.8,6.7-6.6c2.3-2.9,4.6-6.2,7-10.1c2.4-3.9,4.7-8,7-12.5c2.3-4.4,4.5-9,6.6-13.8c2.1-4.7,4.1-9.4,6-14
		c1.2-3.1,2.4-6,3.4-8.8c1.1-2.8,2-5.2,2.8-7.3c1-2.5,1.9-4.8,2.7-6.9L97.6,14.7z"/>
	<path fill="#FFFFFF" d="M97.1,64.9c-1.6,0.1-2.8-0.4-3.7-1.4l-2.1,6.3c-0.3,0.9-0.3,1.5,0,2.1c0.3,0.5,0.9,0.7,1.8,0.7l0.6,0
		l-1.2,2.8c-0.3,0.1-0.7,0.2-1.1,0.3c-0.3,0.1-0.7,0.2-1.1,0.3c-0.4,0.1-0.8,0.1-1.2,0.1c-2.4,0.1-3.9-0.4-4.5-1.7
		c-0.6-1.3-0.5-3.3,0.5-6.2c0.1-0.4,0.4-1.2,0.8-2.4c0.4-1.2,0.8-2.5,1.3-4c0.5-1.5,1-3.1,1.6-4.7c0.6-1.7,1.1-3.2,1.6-4.7
		c0.5-1.5,0.9-2.8,1.3-3.9c0.4-1.1,0.6-1.8,0.7-2.2c0.3-0.9,0.3-1.5,0-2.1c-0.3-0.5-0.9-0.7-1.9-0.7l-0.6,0l1.1-2.8
		c0.3-0.1,0.7-0.2,1.1-0.3c0.3-0.1,0.7-0.2,1.1-0.3c0.4-0.1,0.8-0.1,1.2-0.1c2.9-0.2,4.6,0.7,5,2.7c1.1-1,2.2-1.9,3.4-2.4
		c1.2-0.6,2.3-0.9,3.4-1c1.4-0.1,2.6,0.2,3.5,0.8c0.9,0.6,1.6,1.4,2.1,2.5c0.5,1.1,0.7,2.4,0.6,3.9c-0.1,1.5-0.4,3.2-1,4.9
		c-1.6,4.4-3.6,7.7-6.2,9.9C102.7,63.5,100,64.7,97.1,64.9z M94.3,60.9c0.4,0.5,1,0.7,1.8,0.6c0.8,0,1.5-0.2,2.1-0.6
		c0.7-0.3,1.3-0.9,2-1.6c0.6-0.7,1.3-1.7,1.9-2.8c0.6-1.2,1.3-2.6,2.1-4.3c0.5-1.2,0.9-2.4,1.2-3.5c0.3-1.1,0.4-2.1,0.4-2.9
		c0-0.8-0.2-1.4-0.5-1.9c-0.3-0.4-0.9-0.6-1.6-0.6c-0.7,0-1.5,0.3-2.2,0.7c-0.8,0.4-1.6,1.1-2.3,1.8c-0.1,0.3-0.1,0.7-0.2,1
		c-0.1,0.3-0.2,0.6-0.3,1L94.3,60.9z"/>
	<path fill="#FFFFFF" d="M121.6,61.2c-1.6,0.1-2.8-0.4-3.7-1.4l-2.1,6.3c-0.3,0.9-0.3,1.5,0,2.1c0.3,0.5,0.9,0.7,1.8,0.7l0.6,0
		l-1.2,2.8c-0.3,0.1-0.7,0.2-1.1,0.3c-0.3,0.1-0.7,0.2-1.1,0.3c-0.4,0.1-0.8,0.1-1.2,0.1c-2.4,0.1-3.9-0.4-4.5-1.7
		c-0.6-1.3-0.5-3.3,0.5-6.2c0.1-0.4,0.4-1.2,0.8-2.4c0.4-1.2,0.8-2.5,1.3-4c0.5-1.5,1-3.1,1.6-4.7c0.6-1.7,1.1-3.2,1.6-4.7
		c0.5-1.5,0.9-2.8,1.3-3.9c0.4-1.1,0.6-1.8,0.7-2.2c0.3-0.9,0.3-1.5,0-2.1c-0.3-0.5-0.9-0.7-1.9-0.7l-0.6,0l1.1-2.8
		c0.3-0.1,0.7-0.2,1.1-0.3c0.3-0.1,0.7-0.2,1.1-0.3c0.4-0.1,0.8-0.1,1.2-0.1c2.9-0.2,4.6,0.7,5,2.7c1.1-1,2.2-1.9,3.4-2.4
		c1.2-0.6,2.3-0.9,3.4-1c1.4-0.1,2.6,0.2,3.5,0.8c0.9,0.6,1.6,1.4,2.1,2.5c0.5,1.1,0.7,2.4,0.6,3.9c-0.1,1.5-0.4,3.2-1,4.9
		c-1.6,4.4-3.6,7.7-6.2,9.9C127.2,59.9,124.5,61,121.6,61.2z M118.8,57.2c0.4,0.5,1,0.7,1.8,0.6c0.8,0,1.5-0.2,2.1-0.6
		c0.7-0.3,1.3-0.9,2-1.6c0.6-0.7,1.3-1.7,1.9-2.8c0.6-1.2,1.3-2.6,2.1-4.3c0.5-1.2,0.9-2.4,1.2-3.5c0.3-1.1,0.4-2.1,0.4-2.9
		c0-0.8-0.2-1.4-0.5-1.9c-0.3-0.4-0.9-0.6-1.6-0.6c-0.7,0-1.5,0.3-2.2,0.7c-0.8,0.4-1.6,1.1-2.3,1.8c-0.1,0.3-0.1,0.7-0.2,1
		c-0.1,0.3-0.2,0.6-0.3,1L118.8,57.2z"/>
	<path fill="#FFFFFF" d="M150.4,55.9c0.9-0.1,1.8-0.3,2.7-0.6c0.9-0.4,1.8-0.8,2.6-1.3c0.8-0.5,1.6-1.1,2.2-1.8
		c0.7-0.7,1.2-1.4,1.6-2.1l1.2,1.7c-0.9,2.3-2.6,4.1-5.1,5.5c-2.5,1.4-5.4,2.2-8.8,2.4c-1.8,0.1-3.3-0.1-4.6-0.7
		c-1.3-0.6-2.3-1.4-3-2.5c-0.7-1.1-1.2-2.4-1.3-3.9c-0.1-1.5,0.1-3.2,0.6-4.9c1.3-4.2,3.3-7.4,5.8-9.7c2.5-2.3,5.4-3.5,8.6-3.7
		c1.7-0.1,3,0.3,4,1.1c0.9,0.8,1.5,1.9,1.7,3.2c0.2,1.3,0,2.6-0.6,4.1c-0.6,1.5-1.5,2.8-2.7,4c-1.8,1.7-3.9,2.6-6.4,2.7l-4,0.2
		c-0.4,1.9-0.1,3.5,0.9,4.6C147,55.5,148.5,56,150.4,55.9z M151.7,37.2c-0.4,0.2-0.9,0.6-1.4,1.2c-0.5,0.6-1.1,1.4-1.6,2.3
		c-0.5,0.9-1.1,1.9-1.6,3.1c-0.5,1.1-1,2.3-1.4,3.5l2.2-0.1c1-0.1,1.8-0.4,2.4-1c0.6-0.6,1.2-1.6,1.7-2.8c0.4-1,0.8-1.9,1-2.7
		c0.2-0.9,0.4-1.6,0.4-2.2c0-0.6-0.1-1-0.4-1.3C152.8,36.9,152.3,36.9,151.7,37.2z"/>
	<path fill="#FFFFFF" d="M167.7,28.7c1.2-0.1,2,0.3,2.5,1.3c0.4,0.9,0.4,2.1,0,3.4c-0.3,1-0.7,1.9-1.2,2.6l5.5-0.3
		c-0.1,0.4-0.3,1-0.6,1.8c-0.3,0.8-0.6,1.8-1,2.8c-0.4,1.1-0.7,2.2-1.1,3.3c-0.4,1.2-0.8,2.3-1.2,3.3c-0.4,1-0.7,1.9-0.9,2.7
		c-0.3,0.8-0.4,1.3-0.5,1.5c-0.3,0.8-0.2,1.4,0.2,1.7c0.4,0.3,1,0.4,1.7,0.2c0.7-0.2,1.5-0.6,2.3-1.3c0.8-0.7,1.4-1.6,1.9-2.8
		l1.2,1.7c-0.4,1-0.9,2-1.6,2.9c-0.7,0.9-1.4,1.7-2.3,2.4c-0.9,0.7-1.8,1.2-2.8,1.7c-1,0.4-2,0.7-3,0.8c-1,0.1-1.9-0.1-2.6-0.3
		c-0.8-0.3-1.3-0.8-1.7-1.4c-0.4-0.6-0.6-1.5-0.6-2.5c0-1,0.2-2.2,0.7-3.5l4.4-12.8c-0.7,0.4-1.5,0.7-2.4,0.7
		c-1.2,0.1-2-0.4-2.4-1.3c-0.4-0.9-0.4-2.1,0.1-3.4c0.5-1.6,1.2-2.8,2.2-3.7C165.4,29.3,166.5,28.8,167.7,28.7z"/>
	<path fill="#FFFFFF" d="M181.2,52.6c0.3,0.5,0.9,0.7,1.9,0.6l0.6,0l-1.2,2.8c-0.3,0.1-0.7,0.2-1.1,0.3c-0.6,0.2-1.4,0.3-2.3,0.3
		c-2.4,0.1-3.9-0.4-4.6-1.7c-0.7-1.3-0.5-3.3,0.4-6.1l7.3-21.9c0.3-0.9,0.3-1.5,0.1-2.1c-0.3-0.5-0.9-0.7-1.9-0.7l-0.6,0l1.2-2.8
		c0.3-0.1,0.7-0.1,1.1-0.3c0.3-0.1,0.7-0.2,1.1-0.3c0.4-0.1,0.8-0.1,1.3-0.1c2.4-0.1,3.9,0.4,4.6,1.7c0.7,1.3,0.5,3.4-0.5,6.3
		l-1.4,4.2c0.8-0.6,1.7-1.1,2.6-1.5c0.9-0.4,1.8-0.6,2.8-0.6c2-0.1,3.5,0.5,4.3,1.8c0.9,1.3,0.9,3.3,0,6l-3.5,10.1
		c-0.2,0.8-0.1,1.4,0.3,1.7c0.4,0.3,1,0.4,1.7,0.2c0.7-0.2,1.5-0.6,2.3-1.3c0.8-0.7,1.4-1.6,1.9-2.8l1.2,1.7c-0.4,1-0.9,2-1.6,2.9
		c-0.7,0.9-1.5,1.7-2.3,2.4c-0.9,0.7-1.8,1.2-2.8,1.7c-1,0.4-2,0.7-3,0.8c-1,0.1-1.9-0.1-2.6-0.3c-0.8-0.3-1.3-0.8-1.7-1.4
		c-0.4-0.6-0.6-1.5-0.6-2.5c0-1,0.2-2.2,0.7-3.5l3.5-10c0.2-0.6,0.2-1.1-0.1-1.5c-0.3-0.3-0.6-0.5-1.1-0.5c-0.5,0-1.1,0.1-1.7,0.5
		c-0.6,0.3-1.2,0.8-1.8,1.4l-4.3,12.6C180.9,51.4,180.9,52.1,181.2,52.6z"/>
	<path fill="#FFFFFF" d="M214.7,29.4c1.6-0.1,2.9,0.4,3.8,1.5c0.1-0.3,0.2-0.6,0.2-0.8c0-0.2,0.1-0.4,0.2-0.5l6.9-0.4
		c-0.1,0.4-0.3,1-0.6,2c-0.3,0.9-0.7,2-1.1,3.3c-0.4,1.2-0.9,2.5-1.3,3.9c-0.5,1.4-0.9,2.6-1.3,3.8c-0.4,1.2-0.8,2.2-1.1,3.1
		c-0.3,0.9-0.5,1.4-0.6,1.7c-0.3,0.8-0.2,1.4,0.2,1.7c0.4,0.3,1,0.4,1.7,0.2c0.7-0.2,1.5-0.6,2.3-1.3c0.8-0.7,1.5-1.6,1.9-2.8
		l1.2,1.7c-0.4,1-0.9,2-1.6,2.9c-0.7,0.9-1.4,1.7-2.3,2.4c-0.9,0.7-1.8,1.2-2.8,1.7c-1,0.4-2,0.7-3,0.8c-1.3,0.1-2.4-0.1-3.2-0.6
		c-0.8-0.5-1.4-1.3-1.7-2.4c-1.2,1.1-2.3,2-3.5,2.6c-1.2,0.7-2.4,1-3.5,1.1c-1.4,0.1-2.6-0.2-3.5-0.8c-0.9-0.6-1.6-1.4-2.1-2.5
		s-0.6-2.4-0.6-4c0.1-1.5,0.4-3.2,1-4.9c1.5-4.4,3.6-7.7,6.1-9.8C209.1,30.7,211.8,29.5,214.7,29.4z M217.6,33.4
		c-0.4-0.6-1-0.8-1.9-0.8c-0.8,0-1.5,0.3-2.2,0.6c-0.7,0.4-1.3,0.9-2,1.6c-0.6,0.7-1.3,1.7-1.9,2.9c-0.6,1.2-1.3,2.6-2,4.3
		c-0.6,1.3-1,2.4-1.3,3.5c-0.3,1.1-0.4,2-0.4,2.8c0,0.8,0.2,1.4,0.5,1.9c0.3,0.4,0.9,0.6,1.6,0.6c0.7,0,1.5-0.3,2.3-0.8
		c0.8-0.5,1.6-1.1,2.4-1.9c0.1-0.6,0.2-1.1,0.5-1.7L217.6,33.4z"/>
	<path fill="#FFFFFF" d="M231.8,47.3c-0.3,0.9-0.3,1.6,0,2.1c0.3,0.5,0.9,0.7,1.9,0.6l0.6,0l-1.1,2.8c-0.3,0.1-0.7,0.2-1.1,0.3
		c-0.6,0.2-1.4,0.3-2.3,0.3c-2.4,0.1-3.9-0.4-4.6-1.7c-0.7-1.3-0.6-3.3,0.4-6.1l3.8-11.1c0.3-0.9,0.3-1.5,0.1-2.1
		c-0.3-0.5-0.9-0.7-1.9-0.7l-0.6,0l1.1-2.8c0.3-0.1,0.7-0.2,1.1-0.3c0.3-0.1,0.7-0.2,1.1-0.3c0.4-0.1,0.8-0.1,1.2-0.1
		c2.8-0.2,4.5,0.7,4.9,2.7c0.9-1,2-1.8,3.2-2.4c1.2-0.6,2.4-0.9,3.6-1c2.1-0.1,3.5,0.5,4.4,1.7c0.9,1.3,0.9,3.3-0.1,6
		c-0.2,0.6-0.4,1.3-0.7,2.3c-0.3,1-0.7,2-1,3c-0.4,1-0.7,2-1,2.9c-0.3,0.9-0.5,1.5-0.7,1.9c-0.3,0.8-0.2,1.4,0.2,1.7
		c0.4,0.3,1,0.4,1.7,0.2c0.7-0.2,1.5-0.6,2.3-1.3c0.8-0.7,1.4-1.6,1.9-2.8l1.2,1.7c-0.4,1-0.9,2-1.6,2.9c-0.7,0.9-1.4,1.7-2.3,2.4
		c-0.9,0.7-1.8,1.2-2.8,1.7c-1,0.4-2,0.7-3,0.8c-1,0.1-1.9-0.1-2.6-0.3c-0.8-0.3-1.3-0.8-1.8-1.4c-0.4-0.6-0.6-1.5-0.7-2.5
		c0-1,0.2-2.2,0.7-3.5l3.5-10c0.2-0.6,0.2-1.1-0.1-1.5c-0.3-0.3-0.6-0.5-1.1-0.5c-0.5,0-1.1,0.2-1.8,0.5c-0.7,0.3-1.3,0.8-1.9,1.5
		c-0.1,0.2-0.1,0.4-0.2,0.6c0,0.2-0.1,0.4-0.2,0.6c-0.2,0.7-0.5,1.6-0.9,2.7c-0.4,1.1-0.8,2.2-1.1,3.4c-0.4,1.1-0.7,2.2-1.1,3.1
		C232.2,46.3,231.9,47,231.8,47.3z"/>
	<path fill="#FFFFFF" d="M265.4,26.2c1.6-0.1,2.9,0.4,3.8,1.5l2-5.8c0.3-0.9,0.3-1.5,0-2.1c-0.3-0.5-0.9-0.7-1.8-0.7l-0.6,0l1.1-2.8
		c0.3-0.1,0.7-0.1,1.1-0.3c0.3-0.1,0.7-0.2,1.1-0.3c0.4-0.1,0.8-0.1,1.2-0.1c2.4-0.1,3.9,0.4,4.6,1.7c0.7,1.3,0.5,3.3-0.5,6.2
		l-6.8,20.1c-0.2,0.9-0.2,1.4,0.3,1.7c0.4,0.3,1,0.4,1.7,0.2c0.7-0.2,1.5-0.6,2.3-1.3c0.8-0.7,1.4-1.6,1.9-2.8l1.2,1.7
		c-0.4,1-0.9,2-1.6,2.9c-0.7,0.9-1.4,1.7-2.3,2.4c-0.9,0.7-1.8,1.2-2.8,1.7c-1,0.4-2,0.7-3,0.8c-1.3,0.1-2.4-0.1-3.2-0.6
		c-0.8-0.5-1.4-1.2-1.7-2.3c-1.2,1.1-2.3,1.9-3.6,2.6c-1.2,0.6-2.4,1-3.5,1.1c-1.4,0.1-2.6-0.2-3.5-0.8c-0.9-0.6-1.6-1.4-2.1-2.5
		s-0.6-2.4-0.6-4c0.1-1.5,0.4-3.2,1-4.9c1.6-4.4,3.6-7.7,6.2-9.8C259.8,27.6,262.5,26.4,265.4,26.2z M263.9,43.3
		c0.1-0.3,0.3-0.9,0.6-1.8c0.3-0.9,0.7-1.9,1.1-3.1c0.4-1.2,0.9-2.5,1.4-4c0.5-1.4,0.9-2.8,1.4-4.2c-0.5-0.6-1.1-0.8-1.9-0.8
		c-1.5,0.1-2.9,0.8-4.1,2.2c-1.2,1.4-2.5,3.8-4,7.1c-0.5,1.3-0.9,2.4-1.2,3.5c-0.3,1.1-0.4,2-0.4,2.8c0,0.8,0.2,1.4,0.5,1.9
		c0.3,0.4,0.9,0.6,1.6,0.6c0.7,0,1.5-0.3,2.2-0.8c0.8-0.5,1.5-1.1,2.3-1.8c0.1-0.3,0.1-0.6,0.2-0.8C263.7,44,263.8,43.7,263.9,43.3z
		"/>
</g>
<g>
	<path fill="#FFFFFF" d="M98.1,16.5c-2.5,6.1-4.9,12-7.3,17.8c-1,2.5-2,5-3.1,7.6c-1.1,2.6-2.1,5.1-3.1,7.5c-1,2.4-2,4.8-2.9,7
		c-0.9,2.2-1.7,4.1-2.5,5.8c-0.9,2.1-1.9,4.2-2.8,6.3c-0.9,2.1-1.8,4-2.5,5.9c-0.8,1.9-1.4,3.6-1.9,5.2c-0.5,1.6-0.8,2.9-0.8,4
		c-0.1,1,0.2,1.7,0.9,2.2c0.6,0.4,1.3,0.6,2.1,0.5c0.6-0.1,1.2-0.3,1.9-0.7c0.7-0.4,1.3-0.9,2-1.5c0.6-0.6,1.2-1.4,1.8-2.4
		c0.5-0.9,1-2,1.3-3.1l2.4,2.7c-0.3,1.8-0.9,3.4-1.6,5.1c-0.7,1.6-1.7,3.1-2.8,4.3c-1.1,1.3-2.4,2.4-3.9,3.2c-1.5,0.9-3,1.5-4.7,1.7
		c-1.9,0.3-3.6,0.3-5.1,0.1c-1.5-0.3-2.8-0.8-3.8-1.7c-1-0.9-1.8-2.2-2.2-3.7c-0.4-1.6-0.5-3.5-0.3-5.9c-2.6,4.5-5.2,8.5-7.7,11.9
		c-2.6,3.4-5,6.4-7.5,8.9c-2.4,2.4-5.1,4.3-7.9,5.6c-2.8,1.3-5.5,1.9-8,1.7c-2.5-0.2-4.7-1.1-6.5-2.9c-1.8-1.8-3-4.5-3.4-8.3
		c-0.4-3.7,0-8.6,1.4-14.5c1.3-5.9,3.9-13.1,7.7-21.5c2.1-4.6,4.5-9.2,7.2-13.9c2.7-4.7,5.7-9,8.8-12.9c-2.4,0.7-4.8,1.5-7.4,2.5
		c-2.6,1-5.1,2.1-7.5,3.4c-2.4,1.3-4.5,2.8-6.4,4.5c-1.9,1.7-3.2,3.7-4.1,5.8c-0.9,2.1-1.3,4.1-1.2,5.9c0.1,1.8,0.4,3.5,1.1,4.9
		c0.7,1.4,1.6,2.6,2.8,3.6c1.2,0.9,2.5,1.6,4,1.9l-2,2.8c-2.5,0.2-5-0.1-7.5-1.1c-2.4-1-4.5-2.4-6.3-4.4c-1.8-1.9-3-4.2-3.8-6.8
		c-0.7-2.6-0.6-5.5,0.3-8.5c0.8-2.5,2.1-4.6,3.9-6.4c1.8-1.8,4-3.3,6.5-4.5c2.5-1.2,5.1-2.3,8-3.1c2.9-0.8,5.8-1.5,8.6-2.1
		c2.8-0.6,5.6-1.1,8.2-1.6c2.6-0.5,4.9-1,6.8-1.6c1.9-2,3.8-3.9,5.7-5.4c1.9-1.6,3.9-2.9,5.9-4c0.7-0.4,1.5-0.8,2.5-1.2
		c0.9-0.4,1.9-0.7,2.8-0.9c1-0.2,1.9-0.3,2.8-0.3c0.9,0,1.8,0.3,2.5,0.8c1,0.7,1.3,1.7,1,2.9c-0.4,1.2-1.3,2.5-2.9,3.9
		c-1.5,1.3-3.6,2.6-6.2,3.8c-2.6,1.2-5.6,2.1-9,2.7l-0.8,0.1c-2.8,3.6-5.5,7.8-7.9,12.7c-2.4,4.9-4.6,10.2-6.6,15.9
		c-1.8,5.1-3.2,9.8-4.3,14.2c-1.1,4.3-1.7,8.1-1.9,11.3c-0.2,3.2,0.1,5.8,0.8,7.7c0.7,1.9,2,3,3.9,3.3c1.8,0.2,3.8-0.5,6-2
		c2.1-1.6,4.4-3.8,6.7-6.6c2.3-2.9,4.6-6.2,7-10.1c2.4-3.9,4.7-8,7-12.5c2.3-4.4,4.5-9,6.6-13.8c2.1-4.7,4.1-9.4,6-14
		c1.2-3.1,2.4-6,3.4-8.8c1.1-2.8,2-5.2,2.8-7.3c1-2.5,1.9-4.8,2.7-6.9L98.1,16.5z"/>
	<path fill="#FFFFFF" d="M97.6,66.7c-1.6,0.1-2.8-0.4-3.7-1.4l-2.1,6.3c-0.3,0.9-0.3,1.5,0,2.1c0.3,0.5,0.9,0.7,1.8,0.7l0.6,0
		L93,77.1c-0.3,0.1-0.7,0.2-1.1,0.3c-0.3,0.1-0.7,0.2-1.1,0.3c-0.4,0.1-0.8,0.1-1.2,0.1c-2.4,0.1-3.9-0.4-4.5-1.7
		c-0.6-1.3-0.5-3.3,0.5-6.2c0.1-0.4,0.4-1.2,0.8-2.4c0.4-1.2,0.8-2.5,1.3-4c0.5-1.5,1-3.1,1.6-4.7c0.6-1.7,1.1-3.2,1.6-4.7
		c0.5-1.5,0.9-2.8,1.3-3.9c0.4-1.1,0.6-1.8,0.7-2.2c0.3-0.9,0.3-1.5,0-2.1c-0.3-0.5-0.9-0.7-1.9-0.7l-0.6,0l1.1-2.8
		c0.3-0.1,0.7-0.2,1.1-0.3c0.3-0.1,0.7-0.2,1.1-0.3c0.4-0.1,0.8-0.1,1.2-0.1c2.9-0.2,4.6,0.7,5,2.7c1.1-1,2.2-1.9,3.4-2.4
		c1.2-0.6,2.3-0.9,3.4-1c1.4-0.1,2.6,0.2,3.5,0.8c0.9,0.6,1.6,1.4,2.1,2.5c0.5,1.1,0.7,2.4,0.6,3.9c-0.1,1.5-0.4,3.2-1,4.9
		c-1.6,4.4-3.6,7.7-6.2,9.9C103.2,65.4,100.5,66.6,97.6,66.7z M94.8,62.8c0.4,0.5,1,0.7,1.8,0.6c0.8,0,1.5-0.2,2.1-0.6
		c0.7-0.3,1.3-0.9,2-1.6c0.6-0.7,1.3-1.7,1.9-2.8c0.6-1.2,1.3-2.6,2.1-4.3c0.5-1.2,0.9-2.4,1.2-3.5c0.3-1.1,0.4-2.1,0.4-2.9
		c0-0.8-0.2-1.4-0.5-1.9c-0.3-0.4-0.9-0.6-1.6-0.6c-0.7,0-1.5,0.3-2.2,0.7c-0.8,0.4-1.6,1.1-2.3,1.8c-0.1,0.3-0.1,0.7-0.2,1
		c-0.1,0.3-0.2,0.6-0.3,1L94.8,62.8z"/>
	<path fill="#FFFFFF" d="M122.2,63.1c-1.6,0.1-2.8-0.4-3.7-1.4l-2.1,6.3c-0.3,0.9-0.3,1.5,0,2.1c0.3,0.5,0.9,0.7,1.8,0.7l0.6,0
		l-1.2,2.8c-0.3,0.1-0.7,0.2-1.1,0.3c-0.3,0.1-0.7,0.2-1.1,0.3c-0.4,0.1-0.8,0.1-1.2,0.1c-2.4,0.1-3.9-0.4-4.5-1.7
		c-0.6-1.3-0.5-3.3,0.5-6.2c0.1-0.4,0.4-1.2,0.8-2.4c0.4-1.2,0.8-2.5,1.3-4c0.5-1.5,1-3.1,1.6-4.7c0.6-1.7,1.1-3.2,1.6-4.7
		c0.5-1.5,0.9-2.8,1.3-3.9c0.4-1.1,0.6-1.8,0.7-2.2c0.3-0.9,0.3-1.5,0-2.1c-0.3-0.5-0.9-0.7-1.9-0.7l-0.6,0l1.1-2.8
		c0.3-0.1,0.7-0.2,1.1-0.3c0.3-0.1,0.7-0.2,1.1-0.3c0.4-0.1,0.8-0.1,1.2-0.1c2.9-0.2,4.6,0.7,5,2.7c1.1-1,2.2-1.9,3.4-2.4
		c1.2-0.6,2.3-0.9,3.4-1c1.4-0.1,2.6,0.2,3.5,0.8c0.9,0.6,1.6,1.4,2.1,2.5c0.5,1.1,0.7,2.4,0.6,3.9c-0.1,1.5-0.4,3.2-1,4.9
		c-1.6,4.4-3.6,7.7-6.2,9.9C127.8,61.7,125,62.9,122.2,63.1z M119.3,59.1c0.4,0.5,1,0.7,1.8,0.6c0.8,0,1.5-0.2,2.1-0.6
		c0.7-0.3,1.3-0.9,2-1.6c0.6-0.7,1.3-1.7,1.9-2.8c0.6-1.2,1.3-2.6,2.1-4.3c0.5-1.2,0.9-2.4,1.2-3.5c0.3-1.1,0.4-2.1,0.4-2.9
		c0-0.8-0.2-1.4-0.5-1.9c-0.3-0.4-0.9-0.6-1.6-0.6c-0.7,0-1.5,0.3-2.2,0.7c-0.8,0.4-1.6,1.1-2.3,1.8c-0.1,0.3-0.1,0.7-0.2,1
		c-0.1,0.3-0.2,0.6-0.3,1L119.3,59.1z"/>
	<path fill="#FFFFFF" d="M150.9,57.8c0.9-0.1,1.8-0.3,2.7-0.6c0.9-0.4,1.8-0.8,2.6-1.3c0.8-0.5,1.6-1.1,2.2-1.8
		c0.7-0.7,1.2-1.4,1.6-2.1l1.2,1.7c-0.9,2.3-2.6,4.1-5.1,5.5c-2.5,1.4-5.4,2.2-8.8,2.4c-1.8,0.1-3.3-0.1-4.6-0.7
		c-1.3-0.6-2.3-1.4-3-2.5c-0.7-1.1-1.2-2.4-1.3-3.9c-0.1-1.5,0.1-3.2,0.6-4.9c1.3-4.2,3.3-7.4,5.8-9.7c2.5-2.3,5.4-3.5,8.6-3.7
		c1.7-0.1,3,0.3,4,1.1c0.9,0.8,1.5,1.9,1.7,3.2c0.2,1.3,0,2.6-0.6,4.1c-0.6,1.5-1.5,2.8-2.7,4c-1.8,1.7-3.9,2.6-6.4,2.7l-4,0.2
		c-0.4,1.9-0.1,3.5,0.9,4.6C147.5,57.4,149,57.9,150.9,57.8z M152.2,39c-0.4,0.2-0.9,0.6-1.4,1.2c-0.5,0.6-1.1,1.4-1.6,2.3
		c-0.5,0.9-1.1,1.9-1.6,3.1c-0.5,1.1-1,2.3-1.4,3.5l2.2-0.1c1-0.1,1.8-0.4,2.4-1c0.6-0.6,1.2-1.6,1.7-2.8c0.4-1,0.8-1.9,1-2.7
		c0.2-0.9,0.4-1.6,0.4-2.2c0-0.6-0.1-1-0.4-1.3C153.3,38.7,152.9,38.7,152.2,39z"/>
	<path fill="#FFFFFF" d="M168.2,30.6c1.2-0.1,2,0.3,2.5,1.3c0.4,0.9,0.4,2.1,0,3.4c-0.3,1-0.7,1.9-1.2,2.6l5.5-0.3
		c-0.1,0.4-0.3,1-0.6,1.8c-0.3,0.8-0.6,1.8-1,2.8c-0.4,1.1-0.7,2.2-1.1,3.3c-0.4,1.2-0.8,2.3-1.2,3.3c-0.4,1-0.7,1.9-0.9,2.7
		c-0.3,0.8-0.4,1.3-0.5,1.5c-0.3,0.8-0.2,1.4,0.2,1.7c0.4,0.3,1,0.4,1.7,0.2c0.7-0.2,1.5-0.6,2.3-1.3c0.8-0.7,1.4-1.6,1.9-2.8
		l1.2,1.7c-0.4,1-0.9,2-1.6,2.9c-0.7,0.9-1.4,1.7-2.3,2.4c-0.9,0.7-1.8,1.2-2.8,1.7c-1,0.4-2,0.7-3,0.8c-1,0.1-1.9-0.1-2.6-0.3
		c-0.8-0.3-1.3-0.8-1.7-1.4c-0.4-0.6-0.6-1.5-0.6-2.5c0-1,0.2-2.2,0.7-3.5l4.4-12.8c-0.7,0.4-1.5,0.7-2.4,0.7
		c-1.2,0.1-2-0.4-2.4-1.3c-0.4-0.9-0.4-2.1,0.1-3.4c0.5-1.6,1.2-2.8,2.2-3.7C165.9,31.2,167,30.7,168.2,30.6z"/>
	<path fill="#FFFFFF" d="M181.7,54.4c0.3,0.5,0.9,0.7,1.9,0.6l0.6,0l-1.2,2.8c-0.3,0.1-0.7,0.2-1.1,0.3c-0.6,0.2-1.4,0.3-2.3,0.3
		c-2.4,0.1-3.9-0.4-4.6-1.7c-0.7-1.3-0.5-3.3,0.4-6.1l7.3-21.9c0.3-0.9,0.3-1.5,0.1-2.1c-0.3-0.5-0.9-0.7-1.9-0.7l-0.6,0l1.2-2.8
		c0.3-0.1,0.7-0.1,1.1-0.3c0.3-0.1,0.7-0.2,1.1-0.3c0.4-0.1,0.8-0.1,1.3-0.1c2.4-0.1,3.9,0.4,4.6,1.7c0.7,1.3,0.5,3.4-0.5,6.3
		l-1.4,4.2c0.8-0.6,1.7-1.1,2.6-1.5c0.9-0.4,1.8-0.6,2.8-0.6c2-0.1,3.5,0.5,4.3,1.8c0.9,1.3,0.9,3.3,0,6l-3.5,10.1
		c-0.2,0.8-0.1,1.4,0.3,1.7c0.4,0.3,1,0.4,1.7,0.2c0.7-0.2,1.5-0.6,2.3-1.3c0.8-0.7,1.4-1.6,1.9-2.8l1.2,1.7c-0.4,1-0.9,2-1.6,2.9
		c-0.7,0.9-1.5,1.7-2.3,2.4c-0.9,0.7-1.8,1.2-2.8,1.7c-1,0.4-2,0.7-3,0.8c-1,0.1-1.9-0.1-2.6-0.3c-0.8-0.3-1.3-0.8-1.7-1.4
		c-0.4-0.6-0.6-1.5-0.6-2.5c0-1,0.2-2.2,0.7-3.5l3.5-10c0.2-0.6,0.2-1.1-0.1-1.5c-0.3-0.3-0.6-0.5-1.1-0.5c-0.5,0-1.1,0.1-1.7,0.5
		c-0.6,0.3-1.2,0.8-1.8,1.4l-4.3,12.6C181.4,53.2,181.4,53.9,181.7,54.4z"/>
	<path fill="#FFFFFF" d="M215.2,31.2c1.6-0.1,2.9,0.4,3.8,1.5c0.1-0.3,0.2-0.6,0.2-0.8c0-0.2,0.1-0.4,0.2-0.5l6.9-0.4
		c-0.1,0.4-0.3,1-0.6,2c-0.3,0.9-0.7,2-1.1,3.3c-0.4,1.2-0.9,2.5-1.3,3.9c-0.5,1.4-0.9,2.6-1.3,3.8c-0.4,1.2-0.8,2.2-1.1,3.1
		c-0.3,0.9-0.5,1.4-0.6,1.7c-0.3,0.8-0.2,1.4,0.2,1.7c0.4,0.3,1,0.4,1.7,0.2c0.7-0.2,1.5-0.6,2.3-1.3c0.8-0.7,1.5-1.6,1.9-2.8
		l1.2,1.7c-0.4,1-0.9,2-1.6,2.9c-0.7,0.9-1.4,1.7-2.3,2.4c-0.9,0.7-1.8,1.2-2.8,1.7c-1,0.4-2,0.7-3,0.8c-1.3,0.1-2.4-0.1-3.2-0.6
		c-0.8-0.5-1.4-1.3-1.7-2.4c-1.2,1.1-2.3,2-3.5,2.6c-1.2,0.7-2.4,1-3.5,1.1c-1.4,0.1-2.6-0.2-3.5-0.8c-0.9-0.6-1.6-1.4-2.1-2.5
		s-0.6-2.4-0.6-4c0.1-1.5,0.4-3.2,1-4.9c1.5-4.4,3.6-7.7,6.1-9.8C209.6,32.6,212.3,31.4,215.2,31.2z M218.1,35.3
		c-0.4-0.6-1-0.8-1.9-0.8c-0.8,0-1.5,0.3-2.2,0.6c-0.7,0.4-1.3,0.9-2,1.6c-0.6,0.7-1.3,1.7-1.9,2.9c-0.6,1.2-1.3,2.6-2,4.3
		c-0.6,1.3-1,2.4-1.3,3.5c-0.3,1.1-0.4,2-0.4,2.8c0,0.8,0.2,1.4,0.5,1.9c0.3,0.4,0.9,0.6,1.6,0.6c0.7,0,1.5-0.3,2.3-0.8
		c0.8-0.5,1.6-1.1,2.4-1.9c0.1-0.6,0.2-1.1,0.5-1.7L218.1,35.3z"/>
	<path fill="#FFFFFF" d="M232.3,49.2c-0.3,0.9-0.3,1.6,0,2.1c0.3,0.5,0.9,0.7,1.9,0.6l0.6,0l-1.1,2.8c-0.3,0.1-0.7,0.2-1.1,0.3
		c-0.6,0.2-1.4,0.3-2.3,0.3c-2.4,0.1-3.9-0.4-4.6-1.7c-0.7-1.3-0.6-3.3,0.4-6.1l3.8-11.1c0.3-0.9,0.3-1.5,0.1-2.1
		c-0.3-0.5-0.9-0.7-1.9-0.7l-0.6,0l1.1-2.8c0.3-0.1,0.7-0.2,1.1-0.3c0.3-0.1,0.7-0.2,1.1-0.3c0.4-0.1,0.8-0.1,1.2-0.1
		c2.8-0.2,4.5,0.7,4.9,2.7c0.9-1,2-1.8,3.2-2.4c1.2-0.6,2.4-0.9,3.6-1c2.1-0.1,3.5,0.5,4.4,1.7c0.9,1.3,0.9,3.3-0.1,6
		c-0.2,0.6-0.4,1.3-0.7,2.3c-0.3,1-0.7,2-1,3c-0.4,1-0.7,2-1,2.9c-0.3,0.9-0.5,1.5-0.7,1.9c-0.3,0.8-0.2,1.4,0.2,1.7
		c0.4,0.3,1,0.4,1.7,0.2c0.7-0.2,1.5-0.6,2.3-1.3c0.8-0.7,1.4-1.6,1.9-2.8l1.2,1.7c-0.4,1-0.9,2-1.6,2.9c-0.7,0.9-1.4,1.7-2.3,2.4
		c-0.9,0.7-1.8,1.2-2.8,1.7c-1,0.4-2,0.7-3,0.8c-1,0.1-1.9-0.1-2.6-0.3c-0.8-0.3-1.3-0.8-1.8-1.4c-0.4-0.6-0.6-1.5-0.7-2.5
		c0-1,0.2-2.2,0.7-3.5l3.5-10c0.2-0.6,0.2-1.1-0.1-1.5c-0.3-0.3-0.6-0.5-1.1-0.5c-0.5,0-1.1,0.2-1.8,0.5c-0.7,0.3-1.3,0.8-1.9,1.5
		c-0.1,0.2-0.1,0.4-0.2,0.6c0,0.2-0.1,0.4-0.2,0.6c-0.2,0.7-0.5,1.6-0.9,2.7c-0.4,1.1-0.8,2.2-1.1,3.4c-0.4,1.1-0.7,2.2-1.1,3.1
		C232.7,48.2,232.5,48.8,232.3,49.2z"/>
	<path fill="#FFFFFF" d="M266,28.1c1.6-0.1,2.9,0.4,3.8,1.5l2-5.8c0.3-0.9,0.3-1.5,0-2.1c-0.3-0.5-0.9-0.7-1.8-0.7l-0.6,0l1.1-2.8
		c0.3-0.1,0.7-0.1,1.1-0.3c0.3-0.1,0.7-0.2,1.1-0.3c0.4-0.1,0.8-0.1,1.2-0.1c2.4-0.1,3.9,0.4,4.6,1.7c0.7,1.3,0.5,3.3-0.5,6.2
		l-6.8,20.1c-0.2,0.9-0.2,1.4,0.3,1.7c0.4,0.3,1,0.4,1.7,0.2c0.7-0.2,1.5-0.6,2.3-1.3c0.8-0.7,1.4-1.6,1.9-2.8l1.2,1.7
		c-0.4,1-0.9,2-1.6,2.9c-0.7,0.9-1.4,1.7-2.3,2.4c-0.9,0.7-1.8,1.2-2.8,1.7c-1,0.4-2,0.7-3,0.8c-1.3,0.1-2.4-0.1-3.2-0.6
		c-0.8-0.5-1.4-1.2-1.7-2.3c-1.2,1.1-2.3,1.9-3.6,2.6c-1.2,0.6-2.4,1-3.5,1.1c-1.4,0.1-2.6-0.2-3.5-0.8c-0.9-0.6-1.6-1.4-2.1-2.5
		s-0.6-2.4-0.6-4c0.1-1.5,0.4-3.2,1-4.9c1.6-4.4,3.6-7.7,6.2-9.8C260.4,29.4,263.1,28.3,266,28.1z M264.4,45.2
		c0.1-0.3,0.3-0.9,0.6-1.8c0.3-0.9,0.7-1.9,1.1-3.1c0.4-1.2,0.9-2.5,1.4-4c0.5-1.4,0.9-2.8,1.4-4.2c-0.5-0.6-1.1-0.8-1.9-0.8
		c-1.5,0.1-2.9,0.8-4.1,2.2c-1.2,1.4-2.5,3.8-4,7.1c-0.5,1.3-0.9,2.4-1.2,3.5c-0.3,1.1-0.4,2-0.4,2.8c0,0.8,0.2,1.4,0.5,1.9
		c0.3,0.4,0.9,0.6,1.6,0.6c0.7,0,1.5-0.3,2.2-0.8c0.8-0.5,1.5-1.1,2.3-1.8c0.1-0.3,0.1-0.6,0.2-0.8
		C264.2,45.8,264.3,45.5,264.4,45.2z"/>
</g>
</svg>
